<svg version="1.1" id="Layer_1" xmlns="http://www.w3.org/2000/svg" xmlns:xlink="http://www.w3.org/1999/xlink" x="0px" y="0px"
	 width="100%" viewBox="0 0 500 500" enable-background="new 0 0 500 500" xml:space="preserve">
<path fill="#000000" opacity="0.000000" stroke="none" 
	d="
M224.000000,501.000000 
	C149.333344,501.000000 75.166702,501.000000 1.000040,501.000000 
	C1.000026,334.333405 1.000026,167.666779 1.000013,1.000129 
	C167.666565,1.000086 334.333130,1.000086 500.999756,1.000043 
	C500.999847,167.666534 500.999847,334.333069 500.999939,500.999817 
	C408.833344,501.000000 316.666656,501.000000 224.000000,501.000000 
M382.606628,196.726227 
	C385.460083,194.447098 383.006348,192.813843 381.829956,190.078781 
	C381.829956,182.337692 381.829956,174.596603 381.829956,166.216202 
	C373.745300,166.216202 366.353485,166.216202 358.265167,166.013519 
	C354.803284,164.347305 351.341400,162.681107 347.990814,161.068466 
	C346.569641,162.915039 345.309906,164.551819 343.141815,165.913086 
	C312.573578,165.913086 282.005310,165.913086 251.342926,165.913086 
	C251.342926,170.832047 251.342926,175.341034 251.342926,179.992172 
	C279.867737,179.992172 307.981659,180.007233 336.095367,179.936508 
	C337.207184,179.933716 338.316986,179.113892 340.239807,178.640152 
	C341.963593,179.085800 343.966980,179.116348 345.359192,180.054230 
	C349.694763,182.975006 353.366028,181.648926 357.273163,179.583801 
	C358.571899,180.066025 359.870605,180.548248 360.635040,181.471146 
	C358.937500,183.021484 357.239960,184.571823 355.387939,186.263229 
	C358.565216,189.766479 361.457336,192.955322 365.010193,196.872681 
	C365.737366,195.747452 366.352173,194.796158 367.081787,194.676819 
	C367.231049,195.207535 367.380310,195.738251 367.459229,197.109390 
	C367.686584,198.163055 367.913940,199.216721 367.859680,200.890320 
	C367.881104,202.256165 367.902527,203.622009 367.339264,205.522675 
	C367.392700,207.113220 367.446136,208.703781 367.442780,211.039154 
	C367.343445,219.760147 367.244080,228.481125 366.513702,237.066452 
	C366.299805,237.090027 366.085938,237.113586 365.141907,236.969070 
	C362.984680,237.095947 360.475037,236.545822 358.725769,237.456406 
	C344.313202,244.959229 330.045685,252.740494 315.721100,260.412872 
	C314.373932,261.134430 312.936859,261.688141 310.950256,262.587402 
	C316.815918,248.458679 322.308075,235.229568 327.958527,221.619202 
	C323.733002,219.799805 319.818268,218.432404 316.220490,216.480759 
	C312.159546,214.277863 310.410248,215.203323 308.661163,219.525925 
	C298.961578,243.496979 288.920135,267.329681 279.004150,291.213257 
	C278.274170,292.971497 277.610535,294.757263 276.353699,297.965729 
	C288.706543,292.068512 299.779724,286.782166 311.311646,281.276825 
	C314.352936,291.663391 317.941010,301.333191 319.898590,311.322510 
	C321.895386,321.512177 326.736511,327.924316 337.021179,330.152893 
	C339.872223,330.770660 342.542511,332.222900 346.290222,333.678558 
	C339.707336,313.013916 333.593048,293.820190 327.453278,274.546417 
	C340.974548,267.300720 353.973785,260.334747 367.102570,254.266205 
	C367.313690,256.503723 367.524841,258.741211 367.675690,261.860596 
	C367.675690,271.203278 367.675690,280.545959 367.675690,289.823700 
	C372.746857,289.823700 377.119629,289.823700 381.681030,289.823700 
	C381.681030,277.711578 381.681030,265.973907 381.918304,253.294815 
	C381.805420,250.707870 381.692566,248.120911 381.778839,244.949463 
	C381.608093,244.389954 381.437347,243.830444 381.657806,242.369904 
	C381.679108,232.971542 381.700409,223.573166 381.917480,213.325378 
	C381.962433,211.594208 382.007385,209.863022 382.768555,207.857208 
	C384.732605,207.337128 386.696625,206.817047 388.865173,206.242828 
	C388.181061,204.679199 387.605469,203.363693 386.975281,201.923294 
	C385.216248,202.140106 383.600098,202.339310 382.012756,201.637558 
	C382.027924,200.144379 382.043091,198.651215 382.606628,196.726227 
M129.256241,236.748795 
	C129.256241,232.167969 129.256241,227.587143 129.256241,223.056839 
	C124.060699,223.056839 119.785423,223.056839 115.255013,223.056839 
	C115.255013,265.527405 115.255013,307.753296 115.255013,350.458008 
	C160.166840,350.458008 204.992157,350.458008 249.721008,350.458008 
	C249.721008,345.641357 249.721008,341.230927 249.721008,336.358826 
	C209.475525,336.358826 169.584320,336.358826 129.531265,336.358826 
	C129.365265,335.114441 129.167343,334.318665 129.166412,333.522675 
	C129.146774,316.537598 129.136398,299.552429 129.184235,282.567444 
	C129.186691,281.692963 129.724243,280.820007 130.184937,280.686829 
	C136.198090,298.182648 142.211243,315.678467 148.310165,333.423798 
	C153.175735,331.794220 157.365936,330.205017 161.665649,329.009705 
	C165.095184,328.056305 165.499527,326.558960 164.327057,323.251404 
	C159.563843,309.814423 155.137680,296.257904 150.604996,282.739471 
	C150.132782,281.331177 149.778091,279.883453 149.368881,278.454041 
	C151.689240,278.890808 152.917557,279.871338 154.046692,280.955170 
	C162.937500,289.489319 172.472900,297.471558 180.481979,306.767731 
	C187.167786,314.527985 193.753937,316.036713 202.145218,310.983307 
	C203.708679,310.041718 205.468201,308.177704 205.726547,306.519623 
	C207.390488,295.840149 208.624237,285.094391 210.077682,274.381073 
	C210.873291,268.516632 211.822556,262.673004 212.702530,256.820007 
	C213.004944,256.805511 213.307373,256.791046 213.609802,256.776581 
	C216.650879,265.585236 219.691971,274.393860 222.843079,283.521210 
	C228.920273,281.434082 234.475510,279.526184 240.170807,277.570221 
	C232.237991,254.254333 224.466660,231.413055 216.582764,208.240982 
	C211.169037,210.006470 206.243317,211.426682 201.494812,213.296799 
	C200.357651,213.744659 199.244400,215.620483 199.080048,216.957550 
	C197.597473,229.017975 196.328629,241.104645 194.997360,253.183655 
	C193.586426,265.985596 192.175751,278.787506 190.695831,292.216949 
	C189.186569,290.819000 188.205658,289.971039 187.292450,289.055542 
	C170.931839,272.654083 154.493805,256.328094 138.305679,239.758026 
	C135.453613,236.838654 132.932190,235.804443 129.256241,236.748795 
z"/>
<path fill="#FBFBFB" opacity="1.000000" stroke="none" 
	d="
M129.332962,237.633240 
	C132.932190,235.804443 135.453613,236.838654 138.305679,239.758026 
	C154.493805,256.328094 170.931839,272.654083 187.292450,289.055542 
	C188.205658,289.971039 189.186569,290.819000 190.695831,292.216949 
	C192.175751,278.787506 193.586426,265.985596 194.997360,253.183655 
	C196.328629,241.104645 197.597473,229.017975 199.080048,216.957550 
	C199.244400,215.620483 200.357651,213.744659 201.494812,213.296799 
	C206.243317,211.426682 211.169037,210.006470 216.582764,208.240982 
	C224.466660,231.413055 232.237991,254.254333 240.170807,277.570221 
	C234.475510,279.526184 228.920273,281.434082 222.843079,283.521210 
	C219.691971,274.393860 216.650879,265.585236 213.609802,256.776581 
	C213.307373,256.791046 213.004944,256.805511 212.702530,256.820007 
	C211.822556,262.673004 210.873291,268.516632 210.077682,274.381073 
	C208.624237,285.094391 207.390488,295.840149 205.726547,306.519623 
	C205.468201,308.177704 203.708679,310.041718 202.145218,310.983307 
	C193.753937,316.036713 187.167786,314.527985 180.481979,306.767731 
	C172.472900,297.471558 162.937500,289.489319 154.046692,280.955170 
	C152.917557,279.871338 151.689240,278.890808 149.368881,278.454041 
	C149.778091,279.883453 150.132782,281.331177 150.604996,282.739471 
	C155.137680,296.257904 159.563843,309.814423 164.327057,323.251404 
	C165.499527,326.558960 165.095184,328.056305 161.665649,329.009705 
	C157.365936,330.205017 153.175735,331.794220 148.310165,333.423798 
	C142.211243,315.678467 136.198090,298.182648 130.163025,279.943451 
	C126.214706,268.007111 122.305878,256.807953 118.349052,245.625748 
	C117.402405,242.950485 117.856430,241.281937 120.914566,240.505661 
	C123.779160,239.778519 126.531319,238.608398 129.332962,237.633240 
M148.765747,277.055115 
	C148.722870,277.368286 148.570023,277.912628 148.656540,277.953827 
	C148.994720,278.114716 149.408615,278.116486 149.794373,278.177368 
	C149.724701,277.815613 149.655029,277.453888 148.765747,277.055115 
z"/>
<path fill="#FBFBFB" opacity="1.000000" stroke="none" 
	d="
M381.266602,243.270935 
	C381.437347,243.830444 381.608093,244.389954 381.348419,245.355957 
	C376.269684,248.297882 371.621368,250.833313 366.973053,253.368744 
	C353.973785,260.334747 340.974548,267.300720 327.453278,274.546417 
	C333.593048,293.820190 339.707336,313.013916 346.290222,333.678558 
	C342.542511,332.222900 339.872223,330.770660 337.021179,330.152893 
	C326.736511,327.924316 321.895386,321.512177 319.898590,311.322510 
	C317.941010,301.333191 314.352936,291.663391 311.311646,281.276825 
	C299.779724,286.782166 288.706543,292.068512 276.353699,297.965729 
	C277.610535,294.757263 278.274170,292.971497 279.004150,291.213257 
	C288.920135,267.329681 298.961578,243.496979 308.661163,219.525925 
	C310.410248,215.203323 312.159546,214.277863 316.220490,216.480759 
	C319.818268,218.432404 323.733002,219.799805 327.958527,221.619202 
	C322.308075,235.229568 316.815918,248.458679 310.950256,262.587402 
	C312.936859,261.688141 314.373932,261.134430 315.721100,260.412872 
	C330.045685,252.740494 344.313202,244.959229 358.725769,237.456406 
	C360.475037,236.545822 362.984680,237.095947 365.610931,237.287476 
	C366.389099,237.720596 366.698212,237.835327 367.358643,238.058197 
	C372.228790,239.867874 376.747711,241.569412 381.266602,243.270935 
z"/>
<path fill="#BF8B9B" opacity="1.000000" stroke="none" 
	d="
M129.294601,237.191010 
	C126.531319,238.608398 123.779160,239.778519 120.914566,240.505661 
	C117.856430,241.281937 117.402405,242.950485 118.349052,245.625748 
	C122.305878,256.807953 126.214706,268.007111 130.076904,279.573181 
	C129.724243,280.820007 129.186691,281.692963 129.184235,282.567444 
	C129.136398,299.552429 129.146774,316.537598 129.166412,333.522675 
	C129.167343,334.318665 129.365265,335.114441 129.531265,336.358826 
	C169.584320,336.358826 209.475525,336.358826 249.721008,336.358826 
	C249.721008,341.230927 249.721008,345.641357 249.721008,350.458008 
	C204.992157,350.458008 160.166840,350.458008 115.255013,350.458008 
	C115.255013,307.753296 115.255013,265.527405 115.255013,223.056839 
	C119.785423,223.056839 124.060699,223.056839 129.256241,223.056839 
	C129.256241,227.587143 129.256241,232.167969 129.294601,237.191010 
z"/>
<path fill="#C28E9D" opacity="1.000000" stroke="none" 
	d="
M339.427704,178.674744 
	C338.316986,179.113892 337.207184,179.933716 336.095367,179.936508 
	C307.981659,180.007233 279.867737,179.992172 251.342926,179.992172 
	C251.342926,175.341034 251.342926,170.832047 251.342926,165.913086 
	C282.005310,165.913086 312.573578,165.913086 343.591736,166.405579 
	C342.503662,170.823639 340.965698,174.749207 339.427704,178.674744 
z"/>
<path fill="#BB8998" opacity="1.000000" stroke="none" 
	d="
M381.681030,254.236237 
	C381.681030,265.973907 381.681030,277.711578 381.681030,289.823700 
	C377.119629,289.823700 372.746857,289.823700 367.675690,289.823700 
	C367.675690,280.545959 367.675690,271.203278 368.034271,261.280884 
	C372.822235,258.546173 377.251648,256.391205 381.681030,254.236237 
z"/>
<path fill="#BA8B9A" opacity="1.000000" stroke="none" 
	d="
M368.141296,200.270386 
	C367.913940,199.216721 367.686584,198.163055 367.829224,196.568726 
	C371.824219,195.222046 370.828491,192.311783 371.048553,189.678299 
	C371.402069,189.268738 371.686066,189.104416 372.163940,189.203003 
	C373.357330,190.160110 374.356812,190.854294 375.356323,191.548462 
	C375.737152,190.459961 376.157166,189.383087 376.485321,188.278900 
	C376.711090,187.519287 376.809479,186.721832 377.031982,185.649780 
	C374.573425,181.625259 372.047668,177.892258 369.174286,173.645432 
	C365.886322,176.678772 363.527832,178.854614 361.169342,181.030457 
	C359.870605,180.548248 358.571899,180.066025 357.119781,178.842651 
	C357.631500,174.139725 358.296600,170.177963 358.961700,166.216202 
	C366.353485,166.216202 373.745300,166.216202 381.829956,166.216202 
	C381.829956,174.596603 381.829956,182.337692 381.586365,190.715851 
	C376.942261,194.325409 372.541779,197.297897 368.141296,200.270386 
z"/>
<path fill="#BB8998" opacity="1.000000" stroke="none" 
	d="
M381.462219,242.820419 
	C376.747711,241.569412 372.228790,239.867874 367.424072,237.877029 
	C367.138214,237.587708 367.144745,237.202118 367.144745,237.202118 
	C367.244080,228.481125 367.343445,219.760147 367.782318,210.723282 
	C369.794556,214.531296 372.496857,215.963318 376.877197,214.236694 
	C378.281891,213.682999 380.095306,214.166061 381.721710,214.174805 
	C381.700409,223.573166 381.679108,232.971542 381.462219,242.820419 
z"/>
<path fill="#F3EFF1" opacity="1.000000" stroke="none" 
	d="
M358.613434,166.114868 
	C358.296600,170.177963 357.631500,174.139725 356.985199,178.492813 
	C353.366028,181.648926 349.694763,182.975006 345.359192,180.054230 
	C343.966980,179.116348 341.963593,179.085800 339.833740,178.657455 
	C340.965698,174.749207 342.503662,170.823639 344.045898,166.543335 
	C345.309906,164.551819 346.569641,162.915039 347.990814,161.068466 
	C351.341400,162.681107 354.803284,164.347305 358.613434,166.114868 
M351.292511,176.657669 
	C355.967041,168.707962 355.967041,168.707962 349.866943,166.270142 
	C348.207550,169.330658 346.528931,172.426666 344.477936,176.209442 
	C347.103058,176.598343 348.942719,176.870895 351.292511,176.657669 
z"/>
<path fill="#F3EFF1" opacity="1.000000" stroke="none" 
	d="
M371.970062,188.940094 
	C371.686066,189.104416 371.402069,189.268738 370.695526,189.740326 
	C369.578552,189.968704 368.884094,189.889786 368.048340,189.503952 
	C366.665222,187.730621 365.423431,186.264206 364.181641,184.797791 
	C363.621277,184.964676 363.060883,185.131561 362.500519,185.298447 
	C362.700775,186.603058 362.541138,188.134567 363.186615,189.158508 
	C364.127167,190.650513 365.647064,191.777283 366.899231,193.257996 
	C366.878540,193.456223 366.966980,193.844894 366.966980,193.844879 
	C366.352173,194.796158 365.737366,195.747452 365.010193,196.872681 
	C361.457336,192.955322 358.565216,189.766479 355.387939,186.263229 
	C357.239960,184.571823 358.937500,183.021484 360.902191,181.250793 
	C363.527832,178.854614 365.886322,176.678772 369.174286,173.645432 
	C372.047668,177.892258 374.573425,181.625259 376.657349,185.692429 
	C374.459351,184.769104 372.769165,183.401077 370.921234,182.297104 
	C369.875305,181.672272 368.570374,181.480957 367.382111,181.094376 
	C367.300323,181.502441 367.218567,181.910492 367.136780,182.318558 
	C368.747894,184.525726 370.358978,186.732910 371.970062,188.940094 
z"/>
<path fill="#F6F3F4" opacity="1.000000" stroke="none" 
	d="
M368.000488,200.580353 
	C372.541779,197.297897 376.942261,194.325409 381.627167,191.184052 
	C383.006348,192.813843 385.460083,194.447098 382.008148,197.027893 
	C378.613068,199.403076 375.816467,201.476578 373.019867,203.550079 
	C373.169464,203.841370 373.319061,204.132675 373.468658,204.423965 
	C376.307098,203.795486 379.145538,203.166992 381.983978,202.538513 
	C383.600098,202.339310 385.216248,202.140106 386.975281,201.923294 
	C387.605469,203.363693 388.181061,204.679199 388.865173,206.242828 
	C386.696625,206.817047 384.732605,207.337128 381.983826,207.915741 
	C376.589874,207.797379 370.995239,212.000900 367.923920,204.987854 
	C367.902527,203.622009 367.881104,202.256165 368.000488,200.580353 
z"/>
<path fill="#5A424A" opacity="1.000000" stroke="none" 
	d="
M381.799683,253.765533 
	C377.251648,256.391205 372.822235,258.546173 368.064392,260.839935 
	C367.524841,258.741211 367.313690,256.503723 367.037811,253.817474 
	C371.621368,250.833313 376.269684,248.297882 381.248840,245.648193 
	C381.692566,248.120911 381.805420,250.707870 381.799683,253.765533 
z"/>
<path fill="#664B54" opacity="1.000000" stroke="none" 
	d="
M367.631592,205.255264 
	C370.995239,212.000900 376.589874,207.797379 381.625702,208.053070 
	C382.007385,209.863022 381.962433,211.594208 381.819580,213.750092 
	C380.095306,214.166061 378.281891,213.682999 376.877197,214.236694 
	C372.496857,215.963318 369.794556,214.531296 367.810730,210.350861 
	C367.446136,208.703781 367.392700,207.113220 367.631592,205.255264 
z"/>
<path fill="#5A424A" opacity="1.000000" stroke="none" 
	d="
M381.998352,202.088043 
	C379.145538,203.166992 376.307098,203.795486 373.468658,204.423965 
	C373.319061,204.132675 373.169464,203.841370 373.019867,203.550079 
	C375.816467,201.476578 378.613068,199.403076 381.733948,197.243805 
	C382.043091,198.651215 382.027924,200.144379 381.998352,202.088043 
z"/>
<path fill="#664B54" opacity="1.000000" stroke="none" 
	d="
M367.024384,194.260864 
	C366.966980,193.844894 366.878540,193.456223 367.128845,192.987122 
	C367.649323,191.615631 367.919464,190.713242 368.189636,189.810883 
	C368.884094,189.889786 369.578552,189.968704 370.626038,189.985596 
	C370.828491,192.311783 371.824219,195.222046 367.864380,196.148514 
	C367.380310,195.738251 367.231049,195.207535 367.024384,194.260864 
z"/>
<path fill="#664B54" opacity="1.000000" stroke="none" 
	d="
M366.829224,237.134277 
	C367.144745,237.202118 367.138214,237.587708 367.072784,237.768875 
	C366.698212,237.835327 366.389099,237.720596 365.976013,237.371506 
	C366.085938,237.113586 366.299805,237.090027 366.829224,237.134277 
z"/>
<path fill="#000000" opacity="1.000000" stroke="none" 
	d="
M149.175568,277.073608 
	C149.655029,277.453888 149.724701,277.815613 149.794373,278.177368 
	C149.408615,278.116486 148.994720,278.114716 148.656540,277.953827 
	C148.570023,277.912628 148.722870,277.368286 149.175568,277.073608 
z"/>
<path fill="#5A424A" opacity="1.000000" stroke="none" 
	d="
M372.163940,189.203003 
	C370.358978,186.732910 368.747894,184.525726 367.136780,182.318558 
	C367.218567,181.910492 367.300323,181.502441 367.382111,181.094376 
	C368.570374,181.480957 369.875305,181.672272 370.921234,182.297104 
	C372.769165,183.401077 374.459351,184.769104 376.590179,185.983948 
	C376.809479,186.721832 376.711090,187.519287 376.485321,188.278900 
	C376.157166,189.383087 375.737152,190.459961 375.356323,191.548462 
	C374.356812,190.854294 373.357330,190.160110 372.163940,189.203003 
z"/>
<path fill="#846670" opacity="1.000000" stroke="none" 
	d="
M351.037445,176.900543 
	C348.942719,176.870895 347.103058,176.598343 344.477936,176.209442 
	C346.528931,172.426666 348.207550,169.330658 349.866943,166.270142 
	C355.967041,168.707962 355.967041,168.707962 351.037445,176.900543 
z"/>
<path fill="#000000" opacity="1.000000" stroke="none" 
	d="
M368.048340,189.503937 
	C367.919464,190.713242 367.649323,191.615631 367.149567,192.788895 
	C365.647064,191.777283 364.127167,190.650513 363.186615,189.158508 
	C362.541138,188.134567 362.700775,186.603058 362.500519,185.298447 
	C363.060883,185.131561 363.621277,184.964676 364.181641,184.797791 
	C365.423431,186.264206 366.665222,187.730621 368.048340,189.503937 
z"/>
</svg>